<svg width="148" height="43" viewBox="0 0 148 43" fill="none" xmlns="http://www.w3.org/2000/svg">
<g filter="url(#filter0_d_2607_12)">
<path d="M143.417 27.2544C137.61 37.1037 128.409 34.246 125.643 32.0075C124.468 32.8067 122.405 34.5556 119.656 34.3506C113.798 33.9322 111.706 25.5641 111.706 25.5641C110.839 25.903 109.924 26.1075 108.995 26.1708C108.995 28.6268 106.861 34.4887 101.137 34.4133C94.7149 34.3297 93.4053 24.7566 93.4053 24.7566C93.4053 24.7566 92.7651 25.6436 90.3342 26.5264C90.4555 24.6394 90.3677 34.1247 82.669 34.2627C76.5812 34.3715 74.9369 24.606 74.9369 24.606C74.066 25.3871 72.9879 25.9 71.8324 26.0829C71.9621 24.1666 71.7529 34.292 64.05 34.2585C58.8451 34.2376 57.0669 28.2419 57.2049 27.4093C57.3807 26.3507 55.4476 34.405 50.3891 34.2795C48.2971 34.2167 46.749 32.7063 45.7867 30.6937C44.4812 32.1874 42.5817 34.2795 40.4562 34.2795C36.6362 34.2795 34.9542 31.0829 35.2387 21.9616C35.2638 20.878 35.1843 20.4554 34.109 20.288C33.4646 20.1792 32.8036 19.9784 32.1007 19.8696C31.8747 20.6186 29.9752 34.0326 23.4355 34.2878C21.2431 34.3715 20.0422 32.472 19.0548 31.0619C17.5444 33.0619 15.5486 34.3506 12.7118 34.3506C7.90013 34.3506 4.62402 30.4594 4.62402 25.6645C4.62402 20.8696 7.90013 16.9784 12.7118 16.9784C13.35 16.9771 13.9829 17.0949 14.5779 17.3257C12.9796 2.7736 16.7536 0.501659 20.0548 0.501659C23.2263 0.501659 28.6404 7.85721 21.0213 26.5222C22.6949 32.087 26.3601 31.7732 28.1133 20.3173C28.4689 17.9868 27.5149 14.8446 29.0003 14.4052C31.7115 13.6019 32.0002 16.0077 33.2722 16.4094C34.6153 16.8278 35.4019 16.7901 36.6905 17.0621C38.8955 17.4805 39.7575 18.6772 39.4897 21.3173C39.1675 24.6645 38.6027 29.518 40.3265 30.1038C41.5817 30.5222 43.8327 27.9616 44.2302 26.5515C44.5466 25.6063 44.72 24.6192 44.7448 23.6227C44.7252 21.778 44.892 19.936 45.2427 18.1249C45.4059 17.4805 45.5858 17.0496 46.318 17.0203C46.9205 17.0203 48.0209 16.8236 48.5021 17.2002C49.1465 17.6855 49.067 18.1793 48.9916 19.4721C48.2427 37.9363 54.0125 28.7189 55.7405 21.3382C55.1255 12.9952 55.548 0.643918 60.7614 0.41798C63.481 0.309194 64.6818 2.48908 64.8157 4.11667C65.1881 8.71912 63.0961 16.3174 60.3388 21.4344C58.7656 31.8946 67.2257 33.9406 68.5772 25.6185C66.3638 24.5641 63.9747 20.3047 65.9161 18.2295C67.0081 17.0663 71.5562 18.7399 71.6315 22.3884C73.8616 21.7901 74.142 20.5307 74.1922 20.7399C73.5771 12.3969 74.1461 0.65647 79.3762 0.430531C82.0958 0.321746 83.2966 2.50163 83.4305 4.12923C83.8029 8.73168 81.7109 16.3299 78.9536 21.447C77.3804 31.9071 85.8405 33.9531 87.192 25.631C85.5518 25.313 82.0916 20.7817 84.0874 18.242C85.1544 16.8822 89.6857 19.7064 90.1919 22.5223C92.3342 21.9156 92.6271 20.6981 92.6563 20.9031C92.0413 12.5601 92.6103 0.819647 97.8404 0.593709C100.56 0.484924 101.761 2.66481 101.895 4.2924C102.267 8.89485 100.175 16.4931 97.4178 21.6102C95.8446 32.0703 104.305 34.1163 105.656 25.7942C103.405 25.4177 100.217 20.6353 102.778 18.1876C103.807 17.2085 107.74 19.7483 108.66 22.6436C109.436 22.6065 110.198 22.4249 110.907 22.1081C108.865 12.3132 110.384 0.556056 116.012 0.459823C119.053 0.40543 122.024 2.10415 120.719 11.422C119.464 20.3131 114.995 24.0453 115.008 24.1039C115.267 25.1708 117.564 34.0828 123.351 29.3799C123.012 28.675 122.755 27.9338 122.585 27.1708C121.627 22.2838 123.509 16.7609 128.627 15.8738C131.555 15.3634 134.321 16.7901 134.76 20.0077C135.48 25.2754 130.723 29.0912 128.903 29.9197C128.091 29.4594 136.246 34.6895 141.087 24.2085C141.367 23.6101 141.706 23.6604 142.145 23.97C142.472 24.1708 144.237 25.8402 143.417 27.2544ZM16.2222 24.3716C15.9753 23.6352 15.4691 22.0118 15.2933 21.3089C14.3101 20.4721 13.6197 20.3131 12.3645 20.3131C9.55701 20.3131 7.90431 22.9072 7.90431 25.7063C7.90431 28.5055 9.70345 31.0996 12.5068 31.0996C14.9377 31.0996 16.7912 29.426 17.3561 27.1038C16.9209 26.2084 16.5276 25.3716 16.2013 24.3716H16.2222ZM19.9878 4.35517C18.0172 4.35517 17.3477 9.06222 17.4774 13.0747C17.6007 15.8321 18.1468 18.5542 19.0966 21.1457C19.2263 21.3215 19.2012 21.2085 19.3184 21.3926C22.7326 13.8864 21.3142 4.35098 19.9753 4.35098L19.9878 4.35517ZM61.0584 4.50161C58.5103 4.20872 58.5271 14.8278 58.8409 17.2086C60.163 15.0914 62.4643 5.07482 61.0584 4.50161ZM79.6732 4.50161C77.1252 4.20872 77.1419 14.8278 77.4557 17.2086C78.7695 15.0914 81.0707 5.07064 79.6649 4.50161H79.6732ZM98.1416 4.64805C95.5935 4.35517 95.6103 14.9743 95.9241 17.3592C97.2462 15.2421 99.5475 5.22545 98.1416 4.64805ZM116.313 3.87819C112.342 4.67734 113.267 17.9198 113.869 20.242C118.547 13.8153 118.643 3.6397 116.313 3.87819ZM131.2 20.4261C131.068 20.038 130.806 19.7077 130.458 19.4917C130.11 19.2757 129.698 19.1874 129.292 19.242C127.296 19.514 125.363 21.9993 126.112 25.7775C126.23 26.3316 126.425 26.8666 126.689 27.3674C131.141 24.3758 131.518 22.0244 131.187 20.4261H131.2ZM47.1005 14.104C46.3848 14.1025 45.6954 13.835 45.1661 13.3533C44.6368 12.8717 44.3056 12.2104 44.2369 11.4981C44.1681 10.7858 44.3668 10.0734 44.7941 9.49948C45.2215 8.92551 45.8471 8.53103 46.5492 8.39273C47.2513 8.25444 47.9798 8.38222 48.5929 8.75123C49.206 9.12025 49.66 9.70411 49.8665 10.3893C50.073 11.0744 50.0173 11.8119 49.7102 12.4583C49.4031 13.1046 48.8666 13.6137 48.205 13.8864C47.8547 14.0308 47.4794 14.1048 47.1005 14.104Z" fill="#2D2D2D"/>
</g>
<defs>
<filter id="filter0_d_2607_12" x="0.624023" y="0.414062" width="147.008" height="42" filterUnits="userSpaceOnUse" color-interpolation-filters="sRGB">
<feFlood flood-opacity="0" result="BackgroundImageFix"/>
<feColorMatrix in="SourceAlpha" type="matrix" values="0 0 0 0 0 0 0 0 0 0 0 0 0 0 0 0 0 0 127 0" result="hardAlpha"/>
<feOffset dy="4"/>
<feGaussianBlur stdDeviation="2"/>
<feComposite in2="hardAlpha" operator="out"/>
<feColorMatrix type="matrix" values="0 0 0 0 0 0 0 0 0 0 0 0 0 0 0 0 0 0 0.25 0"/>
<feBlend mode="normal" in2="BackgroundImageFix" result="effect1_dropShadow_2607_12"/>
<feBlend mode="normal" in="SourceGraphic" in2="effect1_dropShadow_2607_12" result="shape"/>
</filter>
</defs>
</svg>
